<?xml version="1.0" encoding="utf-8" standalone="no"?>
<!DOCTYPE svg PUBLIC "-//W3C//DTD SVG 1.1//EN"
  "http://www.w3.org/Graphics/SVG/1.1/DTD/svg11.dtd">
<!-- Created with matplotlib (https://matplotlib.org/) -->
<svg height="576pt" version="1.1" viewBox="0 0 576 576" width="576pt" xmlns="http://www.w3.org/2000/svg" xmlns:xlink="http://www.w3.org/1999/xlink">
 <defs>
  <style type="text/css">
*{stroke-linecap:butt;stroke-linejoin:round;}
  </style>
 </defs>
 <g id="figure_1">
  <g id="patch_1">
   <path d="M 0 576 
L 576 576 
L 576 0 
L 0 0 
z
" style="fill:none;"/>
  </g>
  <g id="axes_1">
   <g id="patch_2">
    <path clip-path="url(#p9ab4aeab12)" d="M 339.367079 376.582159 
C 359.475753 352.173343 371.175564 321.912089 372.716591 290.324523 
C 374.257618 258.736957 365.558999 227.480548 347.921773 201.230266 
L 339.106256 207.153298 
C 355.413156 231.423597 363.485078 260.308944 362.122519 289.51692 
C 360.75996 318.724896 350.03393 346.733313 331.538337 369.380067 
L 327.636792 365.790821 
L 324.59063 384.78877 
L 343.269097 380.17184 
z
" style="fill:#026fdd;stroke:#026fdd;stroke-linejoin:miter;"/>
   </g>
   <g id="patch_3">
    <path clip-path="url(#p9ab4aeab12)" d="M 220.027434 433.50551 
C 233.036157 434.020039 246.056817 432.843958 258.762798 430.006766 
C 271.468778 427.169575 283.752943 422.695197 295.307149 416.69587 
L 287.150282 400.986421 
C 277.095795 406.207043 266.414269 410.119228 255.366366 412.627505 
C 244.318463 415.135782 232.99479 416.21958 221.671679 415.852452 
L 222.491068 407.055274 
L 204.874757 423.191952 
L 219.20788 442.30447 
z
" style="fill:#fb7602;stroke:#fb7602;stroke-linejoin:miter;"/>
   </g>
   <g id="patch_4">
    <path clip-path="url(#p9ab4aeab12)" d="M 105.77349 367.643913 
C 113.065103 378.018806 121.669365 387.40613 131.371508 395.571571 
C 141.073652 403.737012 151.792274 410.612062 163.259832 416.025114 
L 167.79337 406.420808 
C 157.242697 401.440555 147.375022 395.12614 138.432623 387.632601 
C 129.490225 380.139063 121.546894 371.528235 114.797663 362.01154 
L 119.294964 359.204581 
L 101.790464 351.217489 
L 101.275643 370.451213 
z
" style="fill:#672ca2;stroke:#672ca2;stroke-linejoin:miter;"/>
   </g>
   <g id="patch_5">
    <path clip-path="url(#p9ab4aeab12)" d="M 86.379359 383.465833 
C 94.926766 377.846923 105.223122 375.501296 115.360907 376.863507 
C 125.498692 378.225718 134.810654 383.206108 141.571642 390.882001 
C 148.332631 398.557894 152.097649 408.424076 152.169183 418.652722 
C 152.240717 428.881367 148.614059 438.799243 141.961089 446.568947 
L 133.893906 439.661255 
C 138.804428 433.926477 141.51894 426.628127 141.549431 419.078295 
C 141.579923 411.528463 138.924448 404.208425 134.060407 398.434172 
C 129.196367 392.659919 122.433825 388.799539 114.988548 387.547048 
C 107.54327 386.294557 99.889867 387.729798 93.40426 391.594743 
L 96.830277 395.559181 
L 81.484104 394.784279 
L 82.941627 379.487838 
z
" style="fill:#672ca2;stroke:#672ca2;stroke-linejoin:miter;"/>
   </g>
   <g id="patch_6">
    <path clip-path="url(#p9ab4aeab12)" d="M 82.624574 237.46578 
C 78.670233 249.869602 76.342492 262.734374 75.699744 275.737392 
C 75.056995 288.74041 76.104658 301.772032 78.816452 314.505365 
L 96.129078 310.818328 
C 93.769271 299.737763 92.837515 288.400566 93.356548 277.083401 
C 93.87558 265.766237 95.841145 254.561918 99.205275 243.743867 
L 107.468057 246.872472 
L 96.595293 225.600194 
L 74.360118 234.336541 
z
" style="fill:#ba2b2b;stroke:#ba2b2b;stroke-linejoin:miter;"/>
   </g>
   <g id="patch_7">
    <path clip-path="url(#p9ab4aeab12)" d="M 176.490207 144.832327 
C 164.5502 149.103421 153.213261 154.902472 142.762367 162.084729 
C 132.311473 169.266987 122.834308 177.772193 114.567429 187.388051 
L 122.6209 194.311725 
C 130.226804 185.4647 138.937286 177.630777 148.53848 171.002302 
C 158.139674 164.373826 168.552352 159.005495 179.520854 155.029116 
L 181.031212 160.110805 
L 193.384406 145.359541 
L 174.979666 139.750023 
z
" style="fill:#bc30af;stroke:#bc30af;stroke-linejoin:miter;"/>
   </g>
   <g id="patch_8">
    <path clip-path="url(#p9ab4aeab12)" d="M 305.000386 161.41778 
C 294.505514 154.605547 283.173714 149.178832 271.287111 145.272743 
C 259.400508 141.366654 247.058573 139.013878 234.568579 138.272991 
L 234.149321 145.34092 
C 245.964568 146.041782 257.640798 148.259067 268.890484 151.938173 
C 280.140171 155.61728 290.870208 160.727759 300.81637 167.143765 
L 298.731168 169.997442 
L 315.862518 173.746275 
L 307.085756 158.563873 
z
" style="fill:#33962e;stroke:#33962e;stroke-linejoin:miter;"/>
   </g>
   <g id="patch_9">
    <path clip-path="url(#p9ab4aeab12)" d="M 316.56214 137.258981 
C 311.508011 144.441074 304.262232 149.797681 295.913849 152.523699 
C 287.565465 155.249717 278.554793 155.201369 270.236143 152.385922 
L 272.506008 145.679275 
C 279.219207 147.951357 286.482053 148.043118 293.250512 145.941368 
C 300.018971 143.839618 305.9524 139.650134 310.197867 133.975154 
L 307.091365 132.372265 
L 318.475324 125.750581 
L 319.675634 138.865476 
z
" style="fill:#33962e;stroke:#33962e;stroke-linejoin:miter;"/>
   </g>
   <g id="patch_10">
    <path clip-path="url(#p9ab4aeab12)" d="M 415.514795 355.762328 
C 400.795291 351.125359 387.828428 342.119522 378.343407 329.945795 
C 368.858386 317.772068 363.296447 302.996768 362.399305 287.590263 
C 361.502163 272.183758 365.311553 256.862754 373.319471 243.670389 
C 381.32739 230.478024 393.161312 220.028003 407.243119 213.713894 
L 411.588412 223.404823 
C 399.532654 228.810476 389.390226 237.739749 382.500583 249.013401 
C 375.610941 260.287053 372.291343 273.385948 372.980191 286.580185 
C 373.669039 299.774422 378.334611 312.456424 386.360753 322.95135 
C 394.386894 333.446275 405.40401 341.270846 417.957131 345.391714 
L 419.170261 340.240541 
L 427.674286 353.154364 
L 414.301081 360.915979 
z
" style="fill:#026fdd;stroke:#026fdd;stroke-linejoin:miter;"/>
   </g>
   <g id="patch_11">
    <path clip-path="url(#p9ab4aeab12)" d="M 510.891024 306.319338 
C 507.667464 316.413994 502.371021 325.72509 495.341696 333.654908 
C 488.312372 341.584725 479.703869 347.959872 470.068803 352.371099 
L 465.647722 342.714511 
C 473.817902 338.973952 481.131529 333.59167 487.132407 326.903391 
C 493.133285 320.215111 497.693995 312.362849 500.530057 303.836397 
L 495.383676 302.603099 
L 508.330712 294.149725 
L 516.039882 307.55323 
z
" style="fill:#309000;stroke:#309000;stroke-linejoin:miter;"/>
   </g>
   <g id="patch_12">
    <path clip-path="url(#p9ab4aeab12)" d="M 461.822021 210.750163 
C 471.903972 214.013242 481.194249 219.346117 489.096471 226.406451 
C 496.998693 233.466784 503.340069 242.100193 507.71352 251.752465 
L 498.039688 256.135685 
C 494.331162 247.950915 488.97757 240.616261 482.312848 234.58923 
C 475.648126 228.562199 467.81379 223.970765 459.298513 221.101325 
L 458.045065 226.242835 
L 449.642472 213.262786 
L 463.076073 205.606178 
z
" style="fill:#6b0148;stroke:#6b0148;stroke-linejoin:miter;"/>
   </g>
  </g>
 </g>
 <defs>
  <clipPath id="p9ab4aeab12">
   <rect height="334.979073" width="446.4" x="72" y="123.390463"/>
  </clipPath>
 </defs>
</svg>
